<?xml version="1.0" standalone="no"?>
<!DOCTYPE svg PUBLIC "-//W3C//DTD SVG 20010904//EN"
 "http://www.w3.org/TR/2001/REC-SVG-20010904/DTD/svg10.dtd">
<svg version="1.0" xmlns="http://www.w3.org/2000/svg"
 width="48.000000pt" height="48.000000pt" viewBox="0 0 48.000000 48.000000"
 preserveAspectRatio="xMidYMid meet">

<g transform="translate(0.000000,48.000000) scale(0.100000,-0.100000)"
fill="#000000" stroke="none">
<path d="M160 467 c-49 -16 -133 -102 -148 -153 -28 -94 -8 -169 63 -239 101
-102 229 -102 330 0 102 101 102 229 0 330 -70 71 -152 91 -245 62z m190 -61
c59 -39 85 -89 85 -166 0 -78 -26 -127 -88 -168 -56 -37 -153 -39 -210 -3 -76
47 -111 140 -88 229 14 51 75 117 123 131 53 16 135 6 178 -23z"/>
<path d="M268 314 c-61 -33 -69 -41 -103 -106 -20 -38 -35 -72 -32 -75 3 -3
37 12 75 32 65 34 73 42 106 105 51 96 51 96 -46 44z m-13 -74 c0 -22 -29 -18
-33 3 -3 14 1 18 15 15 10 -2 18 -10 18 -18z"/>
</g>
</svg>
